<svg
	xmlns="http://www.w3.org/2000/svg" width="1024" height="1024" fill="rgb(100%,100%,100%)">
	<path d="M72.629 0c23.551 0 30.926 2.254 46.898 14.133 10.035 7.574 10.652 7.781 32.77 9.008 17 .82 49.563 6.555 134.145 23.758l128 26.828c42.395 10.652 72.703 34.613 85.809 67.586 6.555 16.18 6.555 49.152.207 65.535-.82 2.457 2.867 4.508 15.156 9.012 61.234 21.707 114.688 74.344 137.625 135.371 2.254 6.145 4.504 11.266 4.711 11.266.41 0 5.734-2.254 11.879-4.914 28.465-12.699 61.027-11.469 91.75 3.07 16.793 8.191 19.25 10.445 78.027 69.223 48.742 48.539 62.055 63.285 67.992 73.934 10.855 19.863 14.336 35.84 13.109 60.414-1.641 37.684-11.469 53.453-66.766 108.547l-37.07 36.863 98.102 98.305c114.074 114.07 108.746 107.109 108.746 143.152 0 20.277-.406 23.348-5.527 33.59-3.277 6.145-10.648 15.563-16.59 20.887-14.539 13.52-28.262 18.434-51.199 18.434-32.562 0-29.492 2.254-141.312-109.16l-97.687-97.484c-.617-.41-19.254 17-41.371 38.914-29.902 29.285-43.828 41.367-52.84 46.285-33.176 17.406-69.223 18.227-103.422 2.047-11.676-5.531-20.688-13.723-77.004-69.836-57.754-57.754-64.516-65.129-71.066-78.437-12.699-25.805-14.746-57.551-5.734-83.766 2.457-6.555 4.504-12.902 4.914-13.723.203-.816-6.145-4.301-14.336-7.371-28.875-11.469-54.273-27.648-77.211-49.152-25.187-23.961-51.609-67.789-61.027-101.785l-4.711-16.793-17.41-1.023c-28.465-1.844-47.922-10.652-68.199-31.336-20.887-21.094-29.488-42.187-49.559-120.625L47.85 236.546c-15.562-59.187-19.453-77.414-19.453-91.34 0-9.625-.82-11.469-10.035-22.527C4.02 105.473-.895 91.547.129 69.633c.617-13.52 1.844-20.07 6.145-29.082 6.758-14.543 21.094-29.082 35.023-35.637C50.305.82 55.016 0 72.629 0zM51.945 28.875c-10.855 5.734-14.949 9.422-20.684 19.457-11.676 20.07-7.988 41.574 11.262 62.465l12.082 13.105.82 22.531c1.023 20.684 3.277 31.129 30.105 133.117 32.152 122.883 36.66 134.965 55.5 154.215 15.566 15.77 27.855 21.504 49.563 22.527 12.902.617 20.277 0 27.445-2.457 5.324-1.844 9.828-3.277 10.035-3.277s1.637 7.168 3.07 15.77c13.105 82.332 73.32 148.48 152.984 168.551L405.84 640l5.938 1.23-9.625 10.238c-5.121 5.531-11.879 15.359-14.949 21.914-4.918 10.445-5.531 14.129-5.531 34.203 0 35.223-.203 35.02 71.477 107.109 53.246 53.656 61.031 60.824 73.934 67.172 24.984 12.289 54.477 11.266 78.848-2.66 5.117-2.867 30.719-26.625 56.934-52.633l47.512-47.105 106.09 105.676c80.484 80.488 108.133 106.906 115.098 109.98 23.754 10.852 51.609.613 64.102-23.145 5.938-11.672 5.938-29.902 0-42.187-3.277-6.555-34.816-39.527-110.184-114.687l-105.266-105.27 50.586-51.402c55.5-56.117 59.594-61.852 64.102-88.477 3.48-19.25-1.23-40.754-12.492-57.344-4.301-6.551-33.18-36.863-63.898-67.379-64.512-63.898-70.043-67.789-99.328-69.836-26.215-1.844-46.082 5.531-67.176 24.781l-10.035 9.422-4.504-20.277c-9.012-39.73-26.422-71.066-55.91-100.555-18.637-18.637-33.59-29.492-55.5-40.141-15.156-7.578-41.578-16.18-55.504-18.23l-9.418-1.434 7.984-15.562c16.18-32.156 14.543-57.961-4.914-82.738-7.988-10.242-27.441-22.937-43.211-28.059-7.168-2.457-67.586-15.359-134.555-29.082-116.738-23.551-122.676-24.578-143.566-23.961l-21.914.613-9.215-8.602c-5.121-4.711-12.902-10.445-17.613-12.699-11.469-5.937-31.129-5.937-42.187 0zm35.633 27.648l6.352 5.324L82.461 72.09c-6.145 5.734-12.699 13.105-14.336 16.383-3.074 5.941-3.277 5.941-7.375 2.254-2.25-2.047-5.527-6.758-7.168-10.445-3.684-8.602-.816-18.84 6.965-24.984 7.578-5.941 19.25-5.324 27.031 1.227zm198.25 44.649l128.613 28.059c34.199 12.695 46.285 38.5 31.949 68.402-3.074 6.758-9.422 16.18-13.723 21.094-7.578 7.988-9.012 8.805-23.348 10.648-44.645 6.145-83.969 24.988-115.301 55.094-37.07 35.633-54.477 69.836-64.512 127.18-1.434 8.805-2.051 9.422-12.699 13.723-29.285 11.875-54.066.816-70.246-31.336-7.988-15.77-63.078-227.125-64.309-246.988-2.457-35.43 11.879-58.574 41.574-67.992 18.434-5.941 36.867-3.277 162 22.117zm273.406 203.57c33.176 31.746 51.199 69.426 56.113 117.965l1.434 13.926-89.906 89.09-89.703 89.293-16.793-1.434c-74.957-5.734-138.445-59.395-158.926-134.145-3.48-12.492-4.301-21.504-4.301-45.262 0-26.625.617-31.742 5.531-48.129 15.359-50.586 48.742-90.52 94.414-112.641 20.48-9.828 37.684-14.949 59.391-17.406 52.02-5.734 104.449 12.082 142.746 48.742zm178.379 103.016c5.328 2.66 29.492 25.188 64.516 60.004 63.281 62.875 65.945 66.562 65.945 90.113-.207 23.758-2.461 26.828-57.961 82.535l-49.355 49.766-20.684-20.273c-23.348-22.937-29.699-26.832-45.875-28.266-20.277-1.84-40.758 10.445-48.539 29.289-4.098 9.828-3.48 28.875 1.23 39.32 2.047 4.711 12.902 17.816 23.754 29.285l20.07 20.48-46.078 46.082c-51.816 52.02-58.574 56.73-80.488 56.934-23.141 0-23.551 0-87.859-64.102-32.562-32.156-61.027-62.262-63.488-66.766-6.551-12.082-6.348-37.273.41-50.176 3.277-6.348 45.465-49.973 132.918-137.832l135.168-132.914c3.891-2.254 10.648-5.531 15.359-6.965 11.262-3.684 29.695-2.047 40.957 3.484zm-37.886 262.758c3.074 1.637 65.742 63.281 139.266 136.805L972.52 941.055v9.422c0 7.578-1.227 10.648-5.324 14.746-6.348 6.555-16.996 8.805-23.551 5.531-6.758-3.277-267.676-263.785-271.359-270.746-5.941-11.266-1.023-25.805 10.238-30.312 6.348-2.66 11.059-2.457 17.203.82zm0 0"/>
</svg>
