<?xml version="1.0" encoding="UTF-8"?>
<svg width="20px" height="20px" viewBox="0 0 20 20" version="1.1" xmlns="http://www.w3.org/2000/svg" xmlns:xlink="http://www.w3.org/1999/xlink">
	<g transform="translate(-231.64462,-171.99225)">
		<g id="Paint-Editor-V1" fill-rule="evenodd" stroke-miterlimit="10">
			<path d="M234.08038,180.63345c0,-0.78694 0.63795,-1.42484 1.42484,-1.42484h8.67996c0.37791,0 0.74034,0.15012 1.00759,0.41734c0.26722,0.26722 0.41734,0.62966 0.41734,1.00759v5.69937c0,0.78694 -0.63795,1.42484 -1.42484,1.42484h-8.67996c-0.78694,0 -1.42484,-0.63795 -1.42484,-1.42484z" fill="#ffffff" stroke="none" stroke-width="1" stroke-linecap="square" stroke-linejoin="miter"/>
			<path d="M234.3111,180.63345c0,-0.78694 0.63795,-1.42484 1.42484,-1.42484h8.67996c0.37791,0 0.74034,0.15012 1.00759,0.41734c0.26722,0.26722 0.41734,0.62966 0.41734,1.00759v5.69937c0,0.78694 -0.63795,1.42484 -1.42484,1.42484h-8.67996c-0.78694,0 -1.42484,-0.63795 -1.42484,-1.42484z" fill="#855cd6" stroke="#855cd6" stroke-width="0.5" stroke-linecap="butt" stroke-linejoin="round"/>
			<path d="M231.87038,178.24131c0,-1.68434 1.38283,-3.04992 3.08878,-3.04992c0.81916,0 1.60492,0.32134 2.18401,0.89326c0.57925,0.57195 0.90472,1.34774 0.90472,2.15657c0,1.68434 -1.38283,3.04992 -3.08878,3.04992c-1.70595,0 -3.08878,-1.36546 -3.08878,-3.04992z" fill="#ffffff" stroke="none" stroke-width="1" stroke-linecap="square" stroke-linejoin="miter"/>
			<path d="M231.89467,178.24131c0,-1.68434 1.38283,-3.04992 3.08878,-3.04992c0.81916,0 1.60492,0.32134 2.18401,0.89326c0.57925,0.57195 0.90472,1.34774 0.90472,2.15657c0,1.68434 -1.38283,3.04992 -3.08878,3.04992c-1.70595,0 -3.08878,-1.36546 -3.08878,-3.04992z" fill="#855cd6" stroke="#855cd6" stroke-width="0.5" stroke-linecap="butt" stroke-linejoin="round"/>
			<path d="M237.94181,176.18916c0,-2.17976 1.70935,-3.94691 3.81771,-3.94691c1.01251,0 1.98366,0.41583 2.6996,1.15599c0.71597,0.74019 1.11825,1.74408 1.11825,2.79091c0,2.17976 -1.70935,3.94691 -3.81771,3.94691c-2.10849,0 -3.81771,-1.76703 -3.81771,-3.94691z" fill="#ffffff" stroke="none" stroke-width="1" stroke-linecap="square" stroke-linejoin="miter"/>
			<path d="M237.94181,176.18916c0,-2.17976 1.70935,-3.94691 3.81771,-3.94691c1.01251,0 1.98366,0.41583 2.6996,1.15599c0.71597,0.74019 1.11825,1.74408 1.11825,2.79091c0,2.17976 -1.70935,3.94691 -3.81771,3.94691c-2.10849,0 -3.81771,-1.76703 -3.81771,-3.94691z" fill="#855cd6" stroke="#855cd6" stroke-width="0.5" stroke-linecap="butt" stroke-linejoin="round"/>
			<path d="M248.12967,186.59559l-4.20556,-3.11974l4.20556,-3.11974z" fill="#ffffff" stroke="none" stroke-width="1" stroke-linecap="square" stroke-linejoin="miter"/>
			<path d="M248.12967,186.59559l-4.20556,-3.11974l4.20556,-3.11974z" fill="#855cd6" stroke="#855cd6" stroke-width="0.5" stroke-linecap="butt" stroke-linejoin="round"/>
		</g>
	</g>
</svg>