<?xml version="1.0" encoding="UTF-8"?>
<svg width="20px" height="20px" viewBox="0 0 20 20" version="1.1"
	xmlns="http://www.w3.org/2000/svg"
	xmlns:xlink="http://www.w3.org/1999/xlink">
	<defs></defs>
	<g id="looking-active" stroke="none" stroke-width="1" fill="none" fill-rule="evenodd">
		<path d="M 3.7 3.5 L 7.7252 3.0914 C 8.2653 3.0331 8.6763 3.5539 8.5007 4.0741 L 7.1294 8.0187 C 6.9419 8.5756 6.2108 8.7028 5.8462 8.2408 L 5.0508 7.2329 C 3.6074 8.6855 3.44 11.0122 4.7332 12.6509 C 5.3536 13.437 6.2079 13.9344 7.1212 14.1223 C 8.2658 14.3577 8.4563 16.2893 6.8055 15.9682 C 5.4524 15.705 4.183 14.9762 3.2634 13.8109 C 1.3278 11.3584 1.6345 7.8437 3.8842 5.7547 L 3.049 4.6964 C 2.6844 4.2344 2.978 3.5529 3.5632 3.5 M 14.4032 3.5 C 14.9884 3.5529 15.282 4.2345 14.9174 4.6964 L 14.0822 5.7547 C 16.3319 7.8437 16.6385 11.3584 14.703 13.8109 C 13.7834 14.9761 12.514 15.705 11.1609 15.9682 C 9.51 16.2893 9.7005 14.3577 10.8452 14.1223 C 11.7585 13.9345 12.6128 13.4371 13.2332 12.6509 C 14.5264 11.0122 14.359 8.6856 12.9156 7.2329 L 12.1202 8.2408 C 11.7556 8.7028 11.0245 8.5756 10.837 8.0187 L 9.4657 4.0741 C 9.2901 3.5539 9.7011 3.0331 10.2412 3.0914 L 14.4032 3.5" id="Rotate" fill="#855CD6"></path>
	</g>
</svg>
